<?xml version="1.0" encoding="UTF-8" standalone="no"?>
<!-- Created with Inkscape (http://www.inkscape.org/) -->

<svg
   xmlns:dc="http://purl.org/dc/elements/1.1/"
   xmlns:cc="http://creativecommons.org/ns#"
   xmlns:rdf="http://www.w3.org/1999/02/22-rdf-syntax-ns#"
   xmlns:svg="http://www.w3.org/2000/svg"
   xmlns="http://www.w3.org/2000/svg"
   xmlns:sodipodi="http://sodipodi.sourceforge.net/DTD/sodipodi-0.dtd"
   xmlns:inkscape="http://www.inkscape.org/namespaces/inkscape"
   width="233.16705mm"
   height="41.997135mm"
   viewBox="0 0 233.16705 41.997135"
   version="1.1"
   id="svg1075"
   inkscape:version="0.92.1 r15371"
   sodipodi:docname="skyline_2.svg">
  <defs
     id="defs1069" />
  <sodipodi:namedview
     id="base"
     pagecolor="#ffffff"
     bordercolor="#666666"
     borderopacity="1.0"
     inkscape:pageopacity="0.0"
     inkscape:pageshadow="2"
     inkscape:zoom="0.35"
     inkscape:cx="40.630663"
     inkscape:cy="2.2218207"
     inkscape:document-units="mm"
     inkscape:current-layer="layer1"
     showgrid="false"
     fit-margin-top="0"
     fit-margin-left="0"
     fit-margin-right="0"
     fit-margin-bottom="0"
     inkscape:window-width="1680"
     inkscape:window-height="993"
     inkscape:window-x="0"
     inkscape:window-y="0"
     inkscape:window-maximized="1" />
  <metadata
     id="metadata1072">
    <rdf:RDF>
      <cc:Work
         rdf:about="">
        <dc:format>image/svg+xml</dc:format>
        <dc:type
           rdf:resource="http://purl.org/dc/dcmitype/StillImage" />
        <dc:title></dc:title>
      </cc:Work>
    </rdf:RDF>
  </metadata>
  <g
     inkscape:label="Layer 1"
     inkscape:groupmode="layer"
     id="layer1"
     transform="translate(-95.083137,-107.42405)">
    <g
       id="g242"
       transform="matrix(0.35277777,0,0,-0.35277777,166.74218,127.14786)">
      <path
         d="m 0,0 c 0,-0.151 -0.123,-0.274 -0.271,-0.274 -0.152,0 -0.274,0.123 -0.274,0.274 v 1.362 c 0,0.154 0.122,0.276 0.274,0.276 C -0.123,1.638 0,1.516 0,1.362 Z m -0.447,3.747 c 0,0.112 0.093,0.203 0.202,0.203 0.115,0 0.204,-0.091 0.204,-0.203 V 3.081 c 0,-0.11 -0.089,-0.202 -0.204,-0.202 -0.109,0 -0.202,0.092 -0.202,0.202 z M -5.94,2.555 c 0,-0.112 -0.095,-0.199 -0.204,-0.199 -0.113,0 -0.202,0.087 -0.202,0.199 v 0.669 c 0,0.111 0.089,0.203 0.202,0.203 0.109,0 0.204,-0.092 0.204,-0.203 z M -8.771,1.99 h -0.546 v 0.185 c 0,0.147 0.126,0.268 0.271,0.268 0.153,0 0.275,-0.121 0.275,-0.268 z m -0.446,2.567 c 0,0.113 0.091,0.2 0.205,0.2 0.109,0 0.201,-0.087 0.201,-0.2 V 3.888 c 0,-0.111 -0.092,-0.199 -0.201,-0.199 -0.114,0 -0.205,0.088 -0.205,0.199 z M -20.131,1.534 h -0.405 v 0.598 c 0,0.113 0.091,0.202 0.203,0.202 0.113,0 0.202,-0.089 0.202,-0.202 z M -23.366,2.8 c 0,-0.112 -0.09,-0.206 -0.199,-0.206 -0.115,0 -0.204,0.094 -0.204,0.206 v 0.67 c 0,0.107 0.089,0.197 0.204,0.197 0.109,0 0.199,-0.09 0.199,-0.197 z m -3.902,-4.81 h -0.32 v 0.007 h 0.32 z m -1.472,0.798 c 0,-0.152 -0.123,-0.271 -0.271,-0.271 -0.152,0 -0.274,0.119 -0.274,0.271 v 1.359 c 0,0.156 0.122,0.276 0.274,0.276 0.148,0 0.271,-0.12 0.271,-0.276 z m -0.445,3.745 c 0,0.115 0.089,0.206 0.202,0.206 0.112,0 0.2,-0.091 0.2,-0.206 V 1.87 c 0,-0.111 -0.088,-0.201 -0.2,-0.201 -0.113,0 -0.202,0.09 -0.202,0.201 z m -11.607,4.914 h -0.256 l 0.256,0.005 z m -3.284,4.224 c 0,-0.143 -0.119,-0.262 -0.262,-0.262 -0.146,0 -0.264,0.119 -0.264,0.262 v 3.558 c 0,0.144 0.118,0.264 0.264,0.264 0.143,0 0.262,-0.12 0.262,-0.264 z m -24.008,10.962 c 0,-0.109 -0.082,-0.198 -0.183,-0.198 -0.1,0 -0.182,0.089 -0.182,0.198 v 1.329 c 0,0.113 0.082,0.199 0.182,0.199 0.101,0 0.183,-0.086 0.183,-0.199 z m -0.546,0 c 0,-0.109 -0.082,-0.198 -0.183,-0.198 -0.101,0 -0.181,0.089 -0.181,0.198 v 1.329 c 0,0.113 0.08,0.199 0.181,0.199 0.101,0 0.183,-0.086 0.183,-0.199 z m -0.546,0 c 0,-0.109 -0.082,-0.198 -0.182,-0.198 -0.099,0 -0.182,0.089 -0.182,0.198 v 1.329 c 0,0.113 0.083,0.199 0.182,0.199 0.1,0 0.182,-0.086 0.182,-0.199 z m -0.154,5.651 h 1.031 v -1.425 h -1.031 z m -5.506,-2.939 h -1.031 v 1.421 h 1.031 z m -1.555,0.09 h -0.182 v 1.516 h 0.182 z m -2.901,0 v -1.494 l -0.06,0.148 v 1.328 c 0,0.109 0.081,0.2 0.179,0.2 0.096,0 0.172,-0.077 0.18,-0.182 z m -0.244,-1.346 c 0,-0.11 -0.082,-0.201 -0.18,-0.201 -0.103,0 -0.184,0.091 -0.184,0.201 v 1.328 c 0,0.109 0.081,0.2 0.184,0.2 0.098,0 0.18,-0.091 0.18,-0.2 z m -0.547,0 c 0,-0.11 -0.081,-0.201 -0.182,-0.201 -0.101,0 -0.18,0.091 -0.18,0.201 v 1.328 c 0,0.109 0.079,0.2 0.18,0.2 0.101,0 0.182,-0.091 0.182,-0.2 z m -0.15,5.651 h 1.03 v -1.426 h -1.03 z m -5.852,-6.924 c 0,-0.112 -0.082,-0.202 -0.183,-0.202 -0.101,0 -0.179,0.09 -0.179,0.202 v 1.329 c 0,0.11 0.078,0.198 0.179,0.198 0.101,0 0.183,-0.088 0.183,-0.198 z m -0.545,0 c 0,-0.112 -0.08,-0.202 -0.183,-0.202 -0.1,0 -0.182,0.09 -0.182,0.202 v 1.329 c 0,0.11 0.082,0.198 0.182,0.198 0.103,0 0.183,-0.088 0.183,-0.198 z m -0.546,0 c 0,-0.112 -0.081,-0.202 -0.181,-0.202 -0.102,0 -0.184,0.09 -0.184,0.202 v 1.329 c 0,0.11 0.082,0.198 0.184,0.198 0.1,0 0.181,-0.088 0.181,-0.198 z m -0.15,5.651 h 1.029 v -1.425 h -1.029 z M -101.58,9.05 V 8.464 l -0.294,0.294 v 0.577 h 0.294 z m -1.096,-26.119 h -1.82 -21.739 -0.119 -5.114 l -0.024,0.019 v -0.019 h -1.737 l -0.042,0.034 v -0.034 h -1.77 l -0.019,0.021 v -0.021 h -1.85 -1.82 v 12.548 l 0.263,1.115 v 2.399 h 35.527 v -2.399 l 0.264,-1.115 z m -3.922,-2.761 v 2.004 h 1.743 z m 2.045,-1.059 c -0.427,0.216 -0.918,0.421 -1.467,0.61 -0.167,0.059 -0.34,0.117 -0.52,0.175 l 1.985,2.278 h 0.002 z m -3.843,1.669 v 1.394 h 1.283 z m 1.567,1.37 v -2.163 c -0.498,0.151 -1.036,0.293 -1.6,0.426 z m -1.835,0.024 h 0.039 v -1.718 c -0.485,0.114 -0.994,0.223 -1.521,0.314 z m -1.509,-1.116 v 1.116 h 1.179 z m -19.757,0.261 c -0.456,-0.058 -0.901,-0.124 -1.335,-0.199 v 1.054 h 0.334 z m 0.181,0.147 -0.832,0.708 h 1.438 z m 2.175,0.111 c -0.666,-0.057 -1.319,-0.128 -1.953,-0.203 l 0.681,0.8 h 0.672 z m 0.098,0.219 -0.379,0.378 h 0.751 z m 13.16,-0.417 c -2.5,0.263 -5.198,0.408 -7.862,0.408 -1.766,0 -3.512,-0.062 -5.18,-0.194 l 0.571,0.581 h 11.685 z m 0.126,0.189 -0.592,0.606 h 1.199 z m 2.097,-0.477 c -0.646,0.096 -1.313,0.182 -1.994,0.261 l 0.824,0.822 h 0.251 z m 1.628,1.083 h 0.065 v -1.356 c -0.452,0.084 -0.914,0.161 -1.388,0.234 z m -1.453,-0.941 -0.797,0.941 h 1.898 z m -20.513,0.941 h 0.939 v -0.89 z m 0.841,-1.112 c -0.12,-0.017 -0.242,-0.045 -0.358,-0.064 -0.375,-0.071 -0.738,-0.149 -1.094,-0.228 v 1.404 h 0.283 z m -2.753,1.112 h 1.072 v -1.163 z m 1.044,-1.466 c -0.556,-0.136 -1.082,-0.278 -1.576,-0.439 l 0.032,1.905 h 0.19 z m -3.284,1.466 h 1.51 l -0.023,-1.604 z m 1.516,-1.969 c -0.661,-0.226 -1.259,-0.478 -1.785,-0.758 v 2.687 z m 30.514,-2.769 h -32.299 v 1.579 c 1.224,0.691 2.947,1.232 4.974,1.613 2.824,0.537 6.232,0.78 9.7,0.78 4.066,0 8.219,-0.341 11.617,-0.945 1.39,-0.251 2.657,-0.541 3.732,-0.874 v -0.026 l 0.018,0.026 c 0.231,-0.075 0.456,-0.151 0.666,-0.222 0.611,-0.213 1.147,-0.443 1.592,-0.686 z m -34.979,32.258 h -0.294 v 0.224 h 0.294 z m 0,-0.936 -0.295,-0.294 V 9.05 9.426 h 0.295 z m -5.378,0.52 -0.037,-0.307 V 8.765 l -0.123,-0.696 -0.22,0.659 v 0.853 l -0.002,0.053 h 0.022 V 9.426 h 0.36 z m 592.694,3.307 V -1.197 l -1.595,3.878 0.367,1.227 -1.287,4.985 v 2.77 l -2.587,7.627 v 6.827 l -6.337,1.354 h -1.537 v -7.628 h -2.03 V 6.802 6.063 c -2.647,6.887 -4.305,6.952 -4.305,6.952 h -0.797 c -4.127,-1.786 -5.6,-15.012 -5.6,-15.012 h -1.906 v 31.436 l -4.553,1.724 v 13.963 l -1.294,3.138 h -0.552 V 42.85 c -0.429,-1.476 -3.753,-2.766 -3.753,-2.766 -1.169,-0.617 -0.921,-4.124 -0.921,-4.124 v -36.234 -22.206 -0.084 -0.023 -29.98 h -3.877 v 27.318 l -1.497,2.994 v 23.57 h -2.06 v 1.591 h -2.614 V 13.104 H 387.07 V 6.367 h -3.927 v -28.622 l -3.74,-4.491 v 14.03 h 0.744 V 3.561 h -2.056 v 3.976 h -3.557 v 5.567 h -4.381 l -0.575,14.592 -0.577,-14.592 H 368.92 V -2.284 h -5.611 v -5.008 h -2.245 v -17.584 h -3.365 v -17.236 h -6.735 v 15.413 h -3.509 v 2.803 h -7.58 v -2.803 h -3.928 v -3.787 h -2.101 v -2.529 h 0.84 v -15.931 l -4.632,0.075 v 3.926 h -4.772 v -1.878 h -5.187 v 1.878 h -3.369 v 1.829 h 1.962 v 3.646 h -1.962 v 0.719 h -3.093 v 2.369 h -5.89 v 0.98 h -3.51 v 2.387 h -2.803 v -2.387 h -4.772 v -4.068 h -5.637 v 10.384 h -3.228 v 4.767 h -1.055 v 1.829 c 0,4.815 -3.036,8.91 -7.296,10.5 v 2.407 h -0.908 v 6.598 h -0.917 v 3.929 h -1.064 l -1.038,6.593 -1.044,-6.593 h -1.06 v -3.929 h -0.914 v -6.598 h -0.914 v -2.407 c -4.256,-1.59 -7.294,-5.685 -7.294,-10.5 v -1.829 h -1.057 v -4.767 h -3.224 v -15.368 h -4.461 v 10.599 l -4.213,9.536 -4.212,-9.536 v -9.46 c -0.28,-0.508 -0.534,-1.039 -0.838,-1.351 -1.131,-1.161 -1.05,-1.128 -1.296,-2.661 -0.301,-1.893 -1.342,-1.502 -2.776,-2.391 -0.116,-0.067 -0.237,-0.17 -0.352,-0.273 l -2.593,1.059 v 17.324 h -1.444 l -1.573,18.379 -1.571,-18.379 h -1.586 v -7.862 h -3.088 v 0.632 c 0,1.767 -1.19,3.234 -2.806,3.694 v 8.445 h -2.382 v -8.535 c -1.475,-0.539 -2.53,-1.946 -2.53,-3.604 v -2.715 l -4.347,0.65 v 11.255 h -7.72 v 11.225 h -8.7 v -13.185 h -7.438 v 17.748 h -0.561 v 1.986 h -5.33 v 2.011 h -5.334 v -2.714 h -6.032 v -2.057 h -2.245 v -2.85 h -1.4 v -0.707 h 1.4 v -1.101 h -1.4 v -0.703 h 1.4 v -1.107 h -1.4 v -0.697 h 1.4 v -1.105 h -1.4 v -0.702 h 1.4 v -1.108 h -1.4 v -0.703 h 1.4 v -1.104 h -1.4 v -0.699 h 1.4 v -1.105 h -1.4 v -0.702 h 1.4 v -1.107 h -1.4 v -0.703 h 1.4 v -1.104 h -1.4 v -0.701 h 1.4 v -1.106 h -1.4 v -0.702 h 1.4 v -1.1 h -1.4 v -0.553 h -5.893 v 0.246 h 0.837 v 0.701 h -0.837 v 1.105 h 0.837 v 0.703 h -0.837 v 1.108 h 0.837 v 0.697 h -0.837 v 1.106 h 0.837 v 0.698 h -0.837 v 1.105 h 0.837 v 0.708 h -0.837 v 1.106 h 0.837 v 0.697 h -0.837 v 1.106 h 0.837 v 0.698 h -0.837 v 1.105 h 0.837 v 0.708 h -0.837 v 1.101 h 0.837 v 0.703 h -0.837 v 1.107 h 0.837 v 0.699 h -0.837 v 1.104 h 0.837 v 0.7 h -0.837 v 1.109 h 0.837 v 0.701 h -0.837 v 1.107 h 0.837 v 0.697 h -0.837 v 1.106 h 0.837 v 0.702 h -0.837 v 1.102 h 0.837 v 0.705 h -0.837 v 2.667 h -4.22 v 1.23 h -4.872 l -2.983,-2.983 v -2.033 h -3.65 v -18.666 h -6.308 l -5.69,5.122 -0.347,-0.35 v 0.698 3.935 10.944 h -4.772 v 2.103 h -0.841 v 1.123 0.978 h -2.105 v 1.547 h -4.91 v -1.547 h -1.544 v -0.978 h -2.807 v -2.525 h -1.543 v -0.701 h 1.543 v -0.935 h -1.543 v -0.704 h 1.543 v -0.936 h -1.543 v -0.703 h 1.543 v -0.935 h -1.543 v -0.701 h 1.543 v -0.934 h -1.543 v -0.7 h 1.543 v -0.94 h -1.543 v -0.697 h 1.543 v -0.939 h -1.543 v -0.701 h 1.543 v -1.119 h -9.233 V 9.128 l -3.393,0.241 v 4.122 c 0.48,7.035 -7.039,10.109 -7.039,10.109 v 1.857 h -0.481 v 5.093 h -0.809 v 3.234 h -0.811 v 5.014 0.081 h -1.049 v -0.081 -5.014 -0.08 h -0.81 v -3.233 h -0.807 v -5.094 h -0.488 v -1.86 c 0,0 -7.514,-3.072 -7.03,-10.103 V 9.288 L 86.894,9.046 V -9.953 H 84.529 V 2.96 h -0.74 L 83.84,2.999 83.154,7.447 82.69,3.322 h -1.8 L 80.223,7.43 79.596,4.11 h -0.099 v 7.52 H 79.416 V 4.11 h -0.08 L 78.708,7.43 78.041,3.322 h -1.8 L 75.776,7.447 75.091,2.999 75.131,2.96 H 74.91 V -7.549 H 73.773 V 2.356 H 73.551 L 72.906,6.519 72.442,2.396 H 70.644 L 69.976,6.496 69.35,3.184 H 69.085 L 68.46,6.496 67.794,2.396 H 65.993 L 65.53,6.519 64.888,2.356 H 64.762 V -7.998 h -1.275 v 1.072 h -0.21 l -0.556,3.804 -0.593,-3.804 H 61.89 v -1.072 h -2.311 v 18.054 l 0.589,1.027 v 12.254 h -0.663 v 1.022 l 0.554,0.297 -0.883,0.916 v 1.027 l 0.514,0.403 c -2.458,1.871 -3.705,6.604 -3.705,6.604 v 0.699 h -0.477 v 3.63 l 0.55,0.404 c -3.667,6.637 -4.073,12.764 -4.073,12.764 h 0.331 v 0.588 h -0.401 l -0.252,4.219 -0.249,-4.219 h -0.403 v -0.588 h 0.327 c 0,0 -0.402,-6.127 -4.071,-12.764 l 0.551,-0.404 v -3.63 h -0.477 v -0.699 c 0,0 -1.249,-4.733 -3.704,-6.604 l 0.509,-0.403 v -1.027 l -0.877,-0.916 0.549,-0.297 v -1.022 h -0.66 V 11.083 l 0.587,-1.027 V -2.575 l -0.954,0.329 -3.879,-1.89 H 37.721 V -5.69 H 32.262 L 31.697,-6.86 H 29.27 l -0.442,1.816 -1.115,-3.128 -0.316,-1.056 h -0.594 v 1.719 h -2.061 v -2.935 h -1.878 v 0.89 c -0.102,0 -0.635,2.668 -0.635,2.668 0,0 -0.479,-2.603 -0.64,-2.668 v -0.89 H 18.64 v 1.638 c -0.1,0 -0.639,2.672 -0.639,2.672 0,0 -0.472,-2.605 -0.634,-2.672 v -1.638 l -2.645,0.21 v 1.57 h -0.021 l -1.345,2.691 v 1.009 H 13.112 V -5.973 L 11.774,-8.664 H 11.75 v -1.34 l -1.965,0.16 v 1.406 c -0.1,0 -0.635,2.664 -0.635,2.664 0,0 -0.476,-2.608 -0.637,-2.664 V -9.743 L 6.291,-9.569 6.272,-9.593 v 6.086 h 0.767 v 0.24 H 6.494 v 2.734 H 5.806 V -1.716 H 5.73 C 5.218,-1.354 5.323,1.069 5.36,3.95 L 5.065,3.655 C 4.955,3.681 4.85,3.85 4.85,3.85 4.445,4.478 4.652,6.211 4.652,6.752 H 4.08 V 8.661 H 4.002 L 3.615,10.336 3.225,8.661 H 3.15 V 6.752 H 2.578 C 2.578,6.148 2.834,4.076 2.214,3.686 L 2.14,3.68 1.87,3.95 C 1.906,1.069 2.013,-1.354 1.499,-1.716 H 1.151 v 1.291 H 0.652 V 3.306 H 0.408 V 4.699 H 0.682 L -0.13,7.186 -0.183,8.095 H -0.317 L -0.356,7.186 -1.167,4.699 h 0.273 V 3.306 H -1.259 V -0.302 H -2.186 L -2.927,1.99 H -2.94 L -3.137,3.306 -3.335,1.99 H -4.398 V 3.446 H -4.417 L -4.675,4.597 -4.93,3.446 H -4.944 V 2.594 H -5.25 v 0.184 h -0.244 v 1.397 h 0.273 L -6.031,6.66 -6.082,7.569 H -6.22 L -6.26,6.66 -7.071,4.175 h 0.273 V 2.778 H -7.16 V 1.99 h -0.957 v 2.121 h -0.245 v 1.397 h 0.271 L -8.898,7.993 -8.954,8.904 H -9.089 L -9.129,7.993 -9.938,5.508 h 0.272 V 4.111 h -0.362 V 3.319 h -0.705 V 2.667 h -1.231 l -0.131,0.866 -0.131,-0.866 h -0.326 V 1.956 l -0.564,-1.985 h -0.987 v 3.628 h -0.243 v 1.394 h 0.273 l -0.811,2.485 -0.052,0.91 h -0.137 l -0.037,-0.91 -0.812,-2.485 h 0.274 V 3.599 h -0.363 v -3.732 h -0.031 v -0.624 h -0.299 l -0.741,2.291 h -0.09 l -0.185,1.224 -0.185,-1.224 h -1.39 v 0.892 h -0.748 v 0.655 h 0.273 l -0.811,2.489 -0.053,0.909 h -0.136 L -20.446,5.57 -21.255,3.081 h 0.273 V 1.688 h -0.365 V 1.534 h -1.325 v 1.487 h -0.244 v 1.395 h 0.273 l -0.809,2.485 -0.052,0.912 h -0.138 l -0.04,-0.912 -0.809,-2.485 h 0.272 V 3.021 h -0.364 V 1.534 h -1.739 l -0.19,1.256 -0.189,-1.264 -0.659,-2.314 h -0.728 V 2.09 h -0.243 v 1.881 h 0.271 l -0.809,2.488 -0.053,0.906 h -0.136 l -0.039,-0.906 -0.81,-2.488 h 0.273 V 2.09 h -0.364 v -3.728 h -0.031 V -2.01 -3.32 -9.166 h -3.719 v 2.142 h 0.385 V -6.7 h -0.385 v 0.93 h -2.263 V -6.7 h -0.284 v -0.324 h 0.284 V -9.37 h -2.143 v 1.339 h -0.364 v 0.764 h 0.203 v 1.334 h -0.446 v 2.024 h -0.322 v 1.292 h -0.039 v 6.428 h -0.85 v 3.636 h -0.183 v 2.526 h -0.429 l -0.208,0.939 V 7.785 l -0.738,0.876 v 8.082 h -0.647 l 0.005,1.055 h 10e-4 v 1.028 l -0.148,-0.53 h -0.562 v 1.563 h -0.456 l -0.288,2.99 h 0.123 v 0.488 h -0.168 l -0.648,6.788 -0.647,-6.788 h -0.167 v -0.488 h 0.119 l -0.285,-2.99 h -0.455 v -1.563 h -0.567 l -0.144,0.53 v -1.028 l 0.007,0.007 -0.005,-1.062 h -0.646 V 10.57 h -0.524 V 8.285 L -48.25,7.672 v 2.212 h -0.637 V 7.447 h -0.425 V 3.811 h -0.324 V 1.99 h -0.442 v 4.77 h -0.143 V 1.99 h -0.055 l 0.016,0.04 -0.768,1.335 v 1.436 h -0.14 V 3.365 L -51.897,1.99 h 0.303 V 0.635 h -0.384 v -3.252 h -0.97 v 2.343 0.849 h -0.242 v -0.849 h -0.931 l -0.403,0.327 h -0.336 v 3.716 h -0.102 v 0.828 h -0.06 V 3.769 h -0.375 l -0.544,1.437 V 6.55 h -0.061 V 5.206 l -0.547,-1.437 h -0.373 v 0.828 h -0.061 V 3.769 h -0.1 V 0.053 h -0.715 v 1.069 h -0.243 v 1.395 h 0.272 l -0.81,2.487 -0.055,0.909 h -0.133 l -0.041,-0.909 -0.811,-2.487 h 0.273 V 1.122 h -0.362 V 0.053 h -1.162 l -0.567,-2.146 h -0.446 v 2.852 h -0.242 v 1.394 h 0.275 l -0.812,2.488 -0.054,0.907 h -0.135 L -62.89,4.641 -63.7,2.153 h 0.271 V 0.759 h -0.363 v -3.73 h -0.029 v -4.877 h -3.375 v 29.705 h -0.008 v 4.79 H -67.7 v 1.82 h 0.221 v 1.244 h -0.029 l -1.26,2.543 v 1.672 h 0.07 c 0.142,0 0.257,0.115 0.257,0.257 0,0.14 -0.115,0.256 -0.257,0.256 h -0.07 v 0.457 h -0.088 v -0.457 h -0.07 c -0.143,0 -0.257,-0.116 -0.257,-0.256 0,-0.142 0.114,-0.257 0.257,-0.257 h 0.07 v -1.672 l -1.262,-2.543 h -0.028 v -1.244 h 0.295 v -1.82 h -0.566 v -4.79 h -2.055 v 1.759 h -1.273 v 1.515 h -0.492 v 1.819 h 0.219 v 1.246 h -0.031 l -1.257,2.543 v 1.67 h 0.068 c 0.141,0 0.259,0.113 0.259,0.258 0,0.143 -0.118,0.256 -0.259,0.256 h -0.068 v 0.457 h -0.093 v -0.457 h -0.067 c -0.142,0 -0.257,-0.113 -0.257,-0.256 0,-0.145 0.115,-0.258 0.257,-0.258 h 0.067 v -1.67 l -1.046,-2.116 -1.089,2.208 v 11.826 c 0.263,-0.296 0.844,-0.866 1.422,-0.912 0,0 0,1.336 0.244,2.304 0,0 -0.576,1.376 -1.666,2.122 v 0.403 c 0.124,0.062 0.211,0.197 0.211,0.356 0,0.216 -0.164,0.393 -0.364,0.393 -0.2,0 -0.362,-0.177 -0.362,-0.393 0,-0.159 0.087,-0.294 0.211,-0.356 V 30.831 l -0.766,-1.554 v 0.645 h 0.22 v 1.243 h -0.028 l -1.262,2.546 v 1.669 h 0.068 c 0.143,0 0.258,0.116 0.258,0.257 0,0.141 -0.115,0.259 -0.258,0.259 h -0.068 v 0.454 h -0.09 v -0.454 h -0.067 c -0.144,0 -0.258,-0.118 -0.258,-0.259 0,-0.141 0.114,-0.257 0.258,-0.257 h 0.067 v -1.669 l -1.258,-2.546 h -0.031 v -1.243 h 0.297 v -1.818 h -0.571 v -4.488 h -1.998 v -1.759 h -1.881 v 4.972 h -0.491 v 1.821 h 0.218 v 1.244 h -0.029 l -1.259,2.544 v 1.667 h 0.068 c 0.142,0 0.259,0.117 0.259,0.258 0,0.145 -0.117,0.259 -0.259,0.259 h -0.068 v 0.454 h -0.093 v -0.454 h -0.065 c -0.141,0 -0.259,-0.114 -0.259,-0.259 0,-0.141 0.118,-0.258 0.259,-0.258 h 0.065 v -1.667 l -1.256,-2.544 h -0.029 V 28.65 h 0.294 V 26.829 H -88.42 V 21.857 21.373 -10.94 h -0.019 v -11.624 h -4.522 v 5.193 h -2.168 l 0.013,0.151 v 12.852 l 0.303,1.76 v 0.242 h -0.077 v 4.594 h 0.152 v 0.241 h -0.17 v 2.839 l 0.095,0.094 v 0.149 l -0.981,3.177 v 0.853 h 0.356 v 0.262 h -0.356 v 0.661 h -0.304 V 9.843 h -0.34 V 9.581 h 0.319 V 8.728 l -0.217,-0.659 -0.121,0.696 v 0.206 l 0.32,0.041 -0.019,0.266 h -0.339 v 0.737 h -0.247 V 9.278 h -0.321 V 9.05 h 0.284 V 8.144 l -0.245,-1.023 h -0.53 l -1.249,4.726 v 2.61 h -0.224 v -2.516 -0.094 l -1.363,-4.915 h -0.375 l -0.59,2.005 v 1.093 h 0.35 v 0.19 h -0.35 v 0.284 h -0.225 V 10.22 h -0.333 v -0.19 h 0.333 V 9.694 h -0.294 v 0.279 h -0.312 V 9.694 h -0.312 V 9.335 h 0.312 V 8.858 l -0.793,-3.475 V 5.004 l 0.124,-0.123 v -2.56 h -0.292 V 2.096 l 0.152,-0.435 h -16.024 v 0.831 h -0.549 V 2.359 h -0.023 V 2.192 h -0.624 v 0.204 h -0.371 v 0.169 h 0.15 0.012 v 0.172 h -0.012 v 0.058 h -0.189 v 0.3 h -0.044 -0.067 -0.045 v -0.3 h -0.189 V 2.737 h -0.012 V 2.565 h 0.012 0.152 V 2.396 h -0.373 V 2.192 h -0.625 v 0.167 h -0.023 v 0.133 h -0.549 V 1.661 h -16.026 l 0.157,0.435 v 0.225 h -0.295 v 2.56 l 0.125,0.123 v 0.379 l -0.796,3.475 v 0.568 h 0.321 v 0.268 h -0.321 v 0.279 h -0.243 v 0.209 h -0.361 v 0.322 h -0.226 v -0.322 h -0.34 V 9.918 h 0.34 V 8.937 l -0.586,-2.005 h -0.377 l -1.362,4.915 v 0.094 2.516 h -0.226 v -2.61 l -1.249,-4.726 h -0.53 l -0.245,1.023 V 9.05 l -0.038,0.228 v 0.148 h 0.322 v 0.268 h -0.322 v 0.321 h -0.244 V 9.694 h -0.094 v 0.207 h -0.304 v 0.603 h -0.299 V 9.901 h -0.325 V 9.634 h 0.325 V 9.581 8.728 l -0.988,-3.177 V 5.402 l 0.097,-0.094 V 2.469 h -0.172 V 2.228 h 0.154 v -4.594 h -0.079 v -0.242 l 0.304,-1.76 V -17.22 l 0.013,-0.151 h -2.168 v -5.193 h -3.388 v 4.854 h -2.666 v 4.729 h -6.791 v -4.245 h -1.578 -2.059 v -0.724 h -0.851 v 1.571 h -0.727 v 0.973 1.415 h -0.687 v 1.454 h -1.66 v 1.01 c -0.058,2.084 -3.977,3.988 -6.038,3.069 h -4.226 c 0,0 -0.081,3.397 -0.081,5.176 0,0 -0.16,3.237 1.535,3.237 l -3.797,2.34 h -3.963 l -14.633,-1.05 -1.456,-1.536 v -12.45 h -0.486 v -1.616 h -0.563 v -1.776 h -0.567 v -1.22 l 0.21,-13.459 v -32.325 l 612.015,0.017 v -0.017 h 48.721 v 17.65 8.93 49.142 z"
         style="fill:#000000;fill-opacity:0.1;fill-rule:nonzero;stroke:none"
         id="path244"
         inkscape:connector-curvature="0" />
    </g>
  </g>
</svg>
