<?xml version="1.0" encoding="UTF-8" standalone="no"?>
<!-- Created with Inkscape (http://www.inkscape.org/) -->

<svg
   xmlns:dc="http://purl.org/dc/elements/1.1/"
   xmlns:cc="http://creativecommons.org/ns#"
   xmlns:rdf="http://www.w3.org/1999/02/22-rdf-syntax-ns#"
   xmlns:svg="http://www.w3.org/2000/svg"
   xmlns="http://www.w3.org/2000/svg"
   xmlns:sodipodi="http://sodipodi.sourceforge.net/DTD/sodipodi-0.dtd"
   xmlns:inkscape="http://www.inkscape.org/namespaces/inkscape"
   width="231.75171mm"
   height="53.22958mm"
   viewBox="0 0 231.75171 53.22958"
   version="1.1"
   id="svg1127"
   inkscape:version="0.92.1 r15371"
   sodipodi:docname="skyline_3.svg">
  <defs
     id="defs1121" />
  <sodipodi:namedview
     id="base"
     pagecolor="#ffffff"
     bordercolor="#666666"
     borderopacity="1.0"
     inkscape:pageopacity="0.0"
     inkscape:pageshadow="2"
     inkscape:zoom="0.35"
     inkscape:cx="132.2417"
     inkscape:cy="-407.9801"
     inkscape:document-units="mm"
     inkscape:current-layer="layer1"
     showgrid="false"
     fit-margin-top="0"
     fit-margin-left="0"
     fit-margin-right="0"
     fit-margin-bottom="0"
     inkscape:window-width="1680"
     inkscape:window-height="993"
     inkscape:window-x="0"
     inkscape:window-y="0"
     inkscape:window-maximized="1" />
  <metadata
     id="metadata1124">
    <rdf:RDF>
      <cc:Work
         rdf:about="">
        <dc:format>image/svg+xml</dc:format>
        <dc:type
           rdf:resource="http://purl.org/dc/dcmitype/StillImage" />
        <dc:title></dc:title>
      </cc:Work>
    </rdf:RDF>
  </metadata>
  <g
     inkscape:label="Layer 1"
     inkscape:groupmode="layer"
     id="layer1"
     transform="translate(-70.844383,12.34098)">
    <g
       id="g250"
       transform="matrix(0.35277777,0,0,-0.35277777,174.11302,28.305722)">
      <path
         d="M 0,0 C -0.048,-0.01 -0.115,-0.024 -0.157,-0.037 V 0.496 H 0 Z m -21.005,2.929 h -0.84 v 0.553 h 0.84 z m 0,-0.763 -0.84,0.49 v 0.062 h 0.84 z m -3.816,0.763 h -0.921 v 0.553 h 0.921 z m 0,-0.352 -0.921,-0.532 v 0.673 h 0.921 z m -77.895,0.806 0.386,0.577 0.239,0.01 z m -2.159,48.989 h -0.394 v 1.29 h 0.394 z m -9.294,0 h -0.563 v 1.29 h 0.563 z m -53.225,-28.958 -0.574,0.045 -0.005,0.454 h 0.579 z m -1.894,4.145 h -0.629 l -0.012,1.366 h 0.805 z m -2.212,6.604 h -0.956 l -0.178,1.163 h 1.134 z m 0,-1.088 h -0.792 l -0.132,0.872 h 0.924 z m -12.062,1.088 h -0.948 v 1.163 h 1.137 z m -0.164,-1.088 h -0.784 v 0.872 h 0.916 z m -2.375,-5.516 h -0.625 l -0.168,1.366 h 0.805 z m -1.944,-4.1 -0.579,-0.045 v 0.499 h 0.587 z m 527.206,1.417 -14.709,-2.137 v -2.003 l -18.826,4.14 h -27.123 v 1.737 l -6.658,0.931 v 5.209 l -1.028,0.601 v 22.773 h 2.18 v 1.735 h -1.152 v 1.471 h -4.823 v 12.285 l 0.971,0.568 v 1.032 h -3.494 v 0.668 h -1.607 v 10.685 h 1.494 v 2.604 l 0.627,0.365 v 1.106 h -1.789 -0.948 v 5.585 h -0.49 c -0.838,2.122 -3.203,3.835 -6.264,4.579 v 1.986 h 0.231 1.15 v 1.001 h -1.15 v 1.068 h -1.426 l -2.418,12.354 -2.428,-12.354 h -1.427 v -1.068 h -1.149 v -1.001 h 1.149 0.23 v -2.088 c -2.879,-0.788 -5.086,-2.441 -5.887,-4.477 h -0.482 v -5.585 h -1.082 -1.781 V 87.54 l 0.631,-0.365 v -2.604 h 1.498 V 73.886 h -1.606 v -0.668 h -3.504 v -1.032 l 0.973,-0.568 V 59.333 h -4.824 v -1.471 h -1.155 v -1.735 h 2.194 V 33.354 l -1.039,-0.601 v -5.209 l -9.08,-1.6 v -1.068 l 4.986,-0.756 0.059,-12.613 h -29.178 v 2.392 h -1.156 v -2.392 h -10.016 v 0.677 h -2.523 v -0.677 h -0.844 L 173.925,5.052 v 0.083 h -7.801 V 4.602 h -6.143 l -2.127,-3.891 h -0.716 c 0,0 -1.024,1.06 -2.713,0.938 0,0 -1.557,-0.176 -2.633,-0.923 h -0.842 l -4.111,-3.369 h -2.957 v -0.673 h -1.051 v 8.577 h -0.742 v -8.577 h -6.108 v 1.471 l 0.735,0.428 -7.59,3.527 v 3.332 h -1.895 V 3.573 l -0.839,0.44 v 1.614 h -1.26 v -0.95 l -8.936,4.687 -6.404,0.918 -41.104,-0.262 v 0.355 h -1.654 v 0.643 H 58.737 V 10.375 H 53.284 V 9.92 L 45.366,9.872 26.552,3.853 V 3.392 h 0.877 V 1.275 h -2.615 v -1.79 h -1.095 -1.267 v -0.413 h 0.546 v -5.148 l -4.66,-0.09 -5.695,-5.102 h 0.871 v -2.898 H 8.297 v 2.072 0.918 3.951 h 0.795 v 0.37 H 8.297 v 2.206 L 6.165,-3.66 v 2.316 l -0.348,0.017 c 0.591,0.056 1.045,0.357 1.045,0.72 0,0.406 -0.561,0.738 -1.259,0.738 H 5.208 v 1.376 h 0.038 c 0.297,0 0.557,0.145 0.557,0.323 0,0.179 -0.26,0.319 -0.557,0.319 H 4.788 L 4.537,8.401 4.284,2.149 H 3.819 C 3.514,2.149 3.275,2.009 3.275,1.83 3.275,1.652 3.514,1.507 3.819,1.507 H 3.872 V 0.131 H 3.47 c -0.696,0 -1.262,-0.332 -1.262,-0.738 0,-0.263 0.23,-0.492 0.593,-0.622 H 2.761 L 2.726,-3.938 1.663,-4.463 v 1.337 c 0.368,0.1 0.627,0.316 0.627,0.568 0,0.343 -0.469,0.619 -1.072,0.619 H 0.945 v 1.022 c 0.374,0.082 0.638,0.253 0.638,0.448 0,0.251 -0.414,0.456 -0.949,0.497 V 0.496 H 1.262 V 0.864 H 0.634 V 2.059 H 0 V 0.864 H -0.632 V 0.496 H -0.87 v 1.011 h -0.143 c 0.129,0.074 0.208,0.168 0.143,0.323 h 0.082 c -0.449,0.191 -0.419,0.806 -0.549,1.099 -0.067,0.126 -0.211,0.334 -0.162,0.463 0.073,0.23 0.325,0.201 0.394,0.367 0.193,0.412 -0.069,0.665 0.391,1.024 0.276,0.21 0.439,0.152 0.557,0.444 0.071,0.186 0,0.454 -0.02,0.64 C -0.599,5.798 -0.66,5.469 -1.026,5.326 -1.394,5.183 -1.849,5.428 -1.833,5.004 -2.493,5.129 -1.869,5.764 -2.764,5.645 -3.344,5.565 -3.144,5.129 -3.176,4.821 -3.269,4.821 -3.369,4.809 -3.464,4.809 -3.5,4.405 -3.527,2.899 -4.257,2.969 -4.173,2.646 -4.602,2.452 -4.721,2.149 -4.845,1.83 -4.784,1.332 -4.713,1.01 -4.65,1.007 -4.579,1.002 -4.502,1.002 v -1.113 l -5.879,0.676 c 0.203,0.173 0.313,0.376 0.313,0.598 0,0.595 -0.83,1.082 -1.857,1.082 h -0.125 v 1.161 c 0.276,0.053 0.478,0.201 0.478,0.375 0,0.216 -0.301,0.39 -0.67,0.39 h -0.332 l -0.218,5.701 -0.227,-5.701 h -0.329 c -0.369,0 -0.671,-0.174 -0.671,-0.39 0,-0.174 0.205,-0.322 0.47,-0.375 V 2.245 h -0.118 c -1.028,0 -1.851,-0.487 -1.851,-1.082 V 1.155 l -4.167,0.481 V 1.97 h -0.835 v 0.748 h 0.573 v 0.211 h -0.573 v 0.553 h 0.103 v 0.187 h -0.103 v 0.852 h -0.485 V 3.669 h -0.821 c 0,0.011 0.004,0.016 0.004,0.029 0,0.377 -0.407,0.692 -0.983,0.812 v 0.946 c 0.507,-0.033 1.021,-0.101 1.538,-0.077 -0.443,0.077 -1.431,0.112 -1.659,0.399 -0.157,0.199 0.003,0.656 0.003,0.874 0,0.199 -0.16,0.711 -0.003,0.872 0.266,0.276 0.879,0.183 1.417,0.186 -0.029,0.083 0.047,0.198 0.024,0.273 0.31,-0.042 0.535,-0.004 0.527,0.182 -0.688,0.019 -1.319,-0.014 -1.883,-0.133 l 0.312,-0.091 c -0.173,-0.024 -0.435,0 -0.612,0.008 0.021,0.301 0.021,0.713 -0.719,0.582 -0.005,-0.161 -0.016,-0.333 -0.026,-0.49 -0.492,-0.02 -0.586,0.217 -1.01,0.315 -0.341,0.077 -0.8,0.048 -1.175,0.036 -0.102,-0.456 0.58,-0.362 1.093,-0.409 0.781,-0.062 0.786,-0.139 0.786,-0.595 0.007,-0.647 0.719,-1.075 0.629,-1.736 -0.129,-0.034 -0.203,-0.087 -0.227,-0.148 h -0.058 V 4.51 c -0.568,-0.12 -0.982,-0.435 -0.982,-0.812 0,-0.013 0.009,-0.018 0.009,-0.029 h -0.921 v 0.852 h -0.477 V 3.669 3.482 2.929 h -0.57 V 2.718 h 0.57 V 1.951 h -1.253 V 1.399 h -39.424 l -7.328,6.833 v 1.007 h -0.262 -0.552 v 0.34 h -0.267 v -0.34 h -0.689 v 0.34 h -0.26 v -0.34 h -0.691 v 0.34 h -0.265 v -0.34 h -0.685 v 0.34 h -0.266 v -0.34 h -0.691 v 0.34 h -0.261 v -0.34 h -0.695 v 0.34 h -0.255 v -0.34 h -0.696 v 0.34 h -0.254 v -0.34 h -0.691 v 0.34 h -0.266 v -0.34 h -0.687 v 0.34 h -0.262 v -0.34 h -0.69 v 0.34 h -0.269 v -0.34 h -0.686 v 0.34 h -0.262 v -0.34 h -0.691 v 0.34 h -0.262 v -0.34 h -0.686 v 0.34 h -0.265 v -0.34 h -0.686 v 0.34 h -0.272 v -0.34 h -0.684 v 0.34 h -0.264 v -0.34 h -0.687 v 0.34 h -0.262 v -0.34 h -0.687 v 0.34 h -0.271 v -0.34 h -0.682 v 0.34 h -0.268 v -0.34 h -0.694 v 0.34 h -0.255 v -0.34 h -0.689 v 0.34 h -0.265 v -0.34 h -0.689 v 0.34 h -0.262 v -0.34 h -0.692 v 0.34 h -0.263 v -0.34 h -0.576 v 3.986 l 1.271,1.039 v 0.553 h -0.449 v 0.502 h -0.354 v 0.548 l 0.272,0.161 v 0.436 h -0.272 v 0.369 h -0.636 v 6.75 l 1.821,1.381 0.275,0.159 h -0.867 v 0.418 h -1.39 v 1.1 l -0.308,0.182 v 1.175 h 0.745 v 0.595 h -1.225 v 0.553 l 0.637,0.576 -0.123,0.091 -0.477,-0.275 -2.052,8.041 h -0.554 l -0.192,3.353 h -0.24 l -0.282,-3.33 h -0.395 v -0.683 l -2.619,5.305 v 3.499 l 1.078,0.923 h -1.078 v 0.885 h 0.453 v 0.583 h -0.453 v 2.723 l 1.078,0.923 h -1.078 v 0.612 h -0.267 v 1.29 h 0.686 v 0.673 h -0.792 v 0.459 h 0.327 v 0.105 h -0.327 v 0.079 h -0.058 l -0.069,0.336 h 0.454 v 0.106 h -0.472 l -0.069,0.431 h 0.541 v 0.107 h -0.574 l -0.065,0.382 h 0.447 v 0.107 h -0.469 l -0.069,0.384 h 0.443 v 0.106 h -0.46 l -0.131,0.719 -0.132,-0.719 h -0.464 v -0.106 h 0.443 l -0.066,-0.384 h -0.464 V 56.34 h 0.444 l -0.072,-0.382 h -0.573 v -0.107 h 0.559 l -0.09,-0.431 h -0.469 v -0.106 h 0.452 l -0.057,-0.336 h -0.07 v -0.079 h -0.325 v -0.105 h 0.325 v -0.459 h -0.691 c -0.259,0.499 -0.752,0.942 -1.433,1.266 v 4.679 h 1.207 v 0.639 h -1.34 v 1.009 c 0,0.027 0.009,0.052 0.009,0.077 0,0.592 -0.563,1.107 -1.41,1.371 v 0.977 h 0.107 c 0.49,0 0.871,0.225 0.871,0.503 0,0.28 -0.381,0.507 -0.871,0.507 h -0.394 v 0.962 h 0.476 v 0.261 h -0.518 l -0.036,0.373 h 0.498 v 0.262 h -0.524 l -0.043,0.368 h 0.517 v 0.264 h -0.543 l -0.037,0.371 h 0.531 v 0.264 h -0.563 L -109,68.856 h 0.55 v 0.262 h -0.573 l -0.038,0.374 h 0.553 v 0.261 h -0.574 l -0.045,0.371 h 0.571 v 0.262 h -0.596 l -0.036,0.371 h 0.574 v 0.258 h -0.591 l -0.045,0.375 h 0.587 v 0.26 h -0.619 l -0.03,0.373 h 0.6 v 0.258 h -0.624 l -0.045,0.373 h 0.619 v 0.263 h -0.653 l -0.027,0.372 h 0.622 v 0.261 h -0.648 l -0.17,1.603 c 0.531,0.047 0.938,0.31 0.938,0.632 0,0.355 -0.492,0.641 -1.105,0.641 -0.612,0 -1.11,-0.286 -1.11,-0.641 0,-0.355 0.498,-0.642 1.11,-0.642 h 0.004 l -0.169,-1.593 h -0.657 v -0.261 h 0.64 l -0.039,-0.372 h -0.643 v -0.263 h 0.605 l -0.037,-0.373 h -0.625 v -0.258 h 0.608 l -0.041,-0.373 h -0.624 v -0.26 h 0.595 l -0.036,-0.375 h -0.601 v -0.258 h 0.568 l -0.028,-0.371 h -0.597 v -0.262 h 0.567 l -0.041,-0.371 h -0.575 v -0.261 h 0.556 l -0.038,-0.374 h -0.577 v -0.262 h 0.552 l -0.046,-0.368 h -0.555 v -0.264 h 0.531 l -0.028,-0.371 h -0.559 v -0.264 h 0.527 l -0.038,-0.368 h -0.53 v -0.262 h 0.497 l -0.03,-0.373 h -0.534 v -0.261 h 0.486 v -0.962 h -0.395 c -0.481,0 -0.87,-0.227 -0.87,-0.507 0,-0.278 0.389,-0.503 0.87,-0.503 h 0.098 v -0.977 c -0.838,-0.264 -1.401,-0.779 -1.401,-1.371 0,-0.025 0.01,-0.05 0.01,-0.077 v -1.009 h -1.345 V 60.28 h 1.212 v -4.679 c -0.743,-0.358 -1.281,-0.851 -1.508,-1.418 v 0.152 h -0.787 v 0.459 h 0.331 v 0.105 h -0.331 v 0.079 h -0.063 l -0.065,0.336 h 0.459 v 0.106 h -0.481 l -0.07,0.431 h 0.551 v 0.107 h -0.576 l -0.069,0.382 h 0.443 v 0.107 h -0.459 l -0.076,0.384 h 0.444 v 0.106 h -0.464 l -0.131,0.719 -0.131,-0.719 h -0.461 v -0.106 h 0.444 l -0.067,-0.384 h -0.472 V 56.34 h 0.448 l -0.074,-0.382 h -0.563 v -0.107 h 0.543 l -0.074,-0.431 h -0.469 v -0.106 h 0.452 l -0.056,-0.336 h -0.071 v -0.079 h -0.325 v -0.105 h 0.325 v -0.459 h -0.792 v -0.673 h 0.686 v -1.29 h -0.096 V 51.76 h -1.08 l 1.08,-0.923 v -2.723 h -0.456 v -0.583 h 0.456 v -0.885 h -1.08 l 1.08,-0.923 v -3.141 l -0.18,0.004 -2.313,-6.252 -0.132,0.418 v 0.85 h -0.39 l -0.284,3.33 h -0.232 l -0.199,-3.353 h -0.555 l -2.06,-8.041 -0.467,0.275 -0.124,-0.091 0.637,-0.576 v -0.553 h -1.225 v -0.595 h 0.744 v -1.175 l -0.312,-0.182 v -1.1 h -1.386 v -0.418 h -0.874 l 0.282,-0.159 1.821,-1.381 v -6.75 h -0.641 v -0.369 h -0.275 v -0.436 l 0.275,-0.161 v -0.548 h -0.349 v -0.502 h -0.456 v -0.553 l 1.277,-1.039 V 8.569 h -18.591 L -155.635,7.893 V 4.219 h 2.313 V 2.135 h -2.733 v -0.98 h 2.733 v -0.61 h -11.171 v 2.602 l 0.481,0.279 v 0.883 h -0.374 v 1.195 1.041 h -0.578 v 7.812 l 0.529,0.736 h 0.842 v 0.212 h -0.952 v 0.889 h 0.796 v 0.431 h -1.898 v 3.185 h 1.261 v 0.339 h -1.337 l -0.338,1.545 h 0.76 v 0.261 h -0.848 l -0.472,1.337 v 0.621 h 0.687 v 0.261 h -0.687 v 0.277 h -0.773 v -0.277 h -0.579 l -0.008,0.54 h 0.908 v 0.399 h -0.913 l -0.033,2.154 h 0.782 v 0.292 h -0.782 -0.214 l -0.159,1.366 h 0.398 v 0.278 h -0.431 l -0.219,1.849 h 0.432 v 0.186 h -0.455 l -0.087,0.716 -0.094,-0.716 h -0.465 v -0.186 h 0.443 l -0.217,-1.849 h -0.85 l -0.038,3.872 h -0.361 v 2.59 h -0.658 -0.506 -1.187 l -0.169,1.087 h 1.143 v 0.15 h -1.163 l -0.16,1.056 h 1.129 v 0.153 h -1.151 l -0.168,1.054 h 1.131 v 0.156 h -1.155 l -0.156,1.056 h 1.114 v 0.152 h -1.139 l -0.165,1.052 h 1.116 v 0.155 h -1.139 l -0.162,1.054 h 1.107 v 0.155 h -1.134 l -0.148,1.053 h 1.089 v 0.156 h -1.122 l -0.16,1.051 h 1.091 v 0.153 h -1.116 l -0.164,1.056 h 1.08 v 0.156 h -1.105 l -0.157,1.051 h 1.07 v 0.151 h -1.094 l -0.165,1.056 h 1.067 v 0.153 h -1.091 l -0.162,1.056 h 1.062 v 0.151 h -1.082 l -0.16,1.056 h 1.049 v 0.153 h -1.078 l -0.16,1.056 h 1.037 v 0.153 h -1.061 l -0.165,1.056 h 1.04 v 0.153 h -1.057 l -0.164,1.05 h 1.027 v 0.158 h -1.052 l -0.16,1.057 h 1.02 v 0.152 h -1.047 l -0.162,1.052 h 1.011 v 0.153 h -1.03 l -0.17,1.055 h 1.016 v 0.153 h -1.033 l -0.162,1.057 h 1.001 v 0.152 h -1.026 l -0.158,1.05 h 0.983 v 0.159 h -1.007 l -0.168,1.05 h 0.986 v 0.157 h -1.007 l -0.312,2.003 h 0.583 v 0.438 h -0.928 v 0.619 h 0.716 v 0.623 h -1.041 l -0.184,2.802 h 0.948 v 0.179 h -0.969 L -178,69.63 h -0.165 l -0.038,-0.696 h -0.924 v -0.179 h 0.916 l -0.16,-2.802 h -1.031 V 65.33 h 0.708 v -0.619 h -0.931 v -0.438 h 0.691 l -0.312,-2.003 h -0.995 v -0.157 h 0.97 l -0.155,-1.05 h -1.016 v -0.159 h 0.99 l -0.165,-1.05 h -1.018 v -0.152 h 0.995 l -0.166,-1.057 h -1.018 v -0.153 h 1.004 l -0.164,-1.055 h -1.038 v -0.153 h 1.012 l -0.16,-1.052 h -1.041 V 56.08 h 1.012 l -0.16,-1.057 h -1.044 v -0.158 h 1.024 l -0.161,-1.05 h -1.057 v -0.153 h 1.032 l -0.164,-1.056 h -1.062 v -0.153 h 1.037 l -0.156,-1.056 h -1.077 v -0.153 h 1.055 l -0.167,-1.056 h -1.081 v -0.151 h 1.063 l -0.167,-1.056 h -1.09 v -0.153 h 1.064 l -0.155,-1.056 h -1.097 v -0.151 h 1.077 l -0.17,-1.051 h -1.105 v -0.156 h 1.082 l -0.156,-1.056 h -1.118 v -0.153 h 1.083 l -0.156,-1.051 h -1.117 v -0.156 h 1.094 l -0.16,-1.053 h -1.136 V 42.79 h 1.111 l -0.161,-1.054 h -1.129 v -0.155 h 1.113 l -0.168,-1.052 h -1.148 v -0.152 h 1.122 l -0.164,-1.056 h -1.143 v -0.156 h 1.119 l -0.16,-1.054 h -1.161 v -0.153 h 1.148 l -0.173,-1.056 h -1.166 v -0.15 h 1.141 l -0.168,-1.087 h -1.179 -0.502 -0.661 v -2.59 h -0.37 l -0.046,-3.872 h -0.83 l -0.229,1.849 h 0.446 v 0.186 h -0.468 l -0.086,0.716 -0.086,-0.716 h -0.464 v -0.186 h 0.443 l -0.225,-1.849 h -0.423 v -0.278 h 0.394 l -0.164,-1.366 h -0.215 -0.792 v -0.292 h 0.789 l -0.026,-2.154 h -0.919 v -0.399 h 0.91 v -0.54 h -0.59 v 0.277 h -0.756 v -0.277 h -0.691 v -0.261 h 0.691 v -0.621 l -0.486,-1.337 h -0.842 v -0.261 h 0.757 l -0.345,-1.545 h -1.332 V 19.81 h 1.264 v -3.185 h -1.893 v -0.431 h 0.784 v -0.889 h -0.948 v -0.212 h 0.846 l 0.531,-0.736 V 6.545 h -0.584 V 5.504 4.309 h -0.367 V 3.426 l 0.47,-0.279 V 0.545 h -3.173 v 0.087 h -0.433 v 0.079 h -0.924 V 1.27 h 0.621 v 0.289 h -0.621 v 1.632 h -0.399 V 1.559 h -0.538 V 1.27 h 0.538 V 0.711 h -0.826 v 1.317 h 0.514 v 0.351 h -0.514 v 0.048 0.008 c 0,0.331 -0.382,0.608 -0.899,0.704 l -0.375,3.421 -0.381,-3.421 c -0.518,-0.095 -0.909,-0.373 -0.909,-0.704 V 2.427 2.379 h -0.513 V 2.028 h 0.513 V 0.711 h -1.061 V 1.27 h 0.65 v 0.289 h -0.65 v 1.632 h -0.393 V 1.559 h -0.514 V 1.27 h 0.514 V 0.711 h -0.74 V 0.632 h -0.386 V 0.19 h 0.386 v -0.534 h -0.711 v -0.293 h 0.711 v -0.936 h -0.924 v -0.673 h 0.924 v -2.265 h -11.774 v -0.506 h -1.66 v -0.414 h 0.863 V -6.12 h -1.414 v 0.273 h -0.719 V -6.35 h 1.43 v -9.105 h -20.589 l -9.502,14.334 h -23.283 l -2.6,-3.117 v 4.275 h -0.769 l -0.459,2.669 h -1.378 l -5.206,20.302 -8.885,-21.016 h -2.601 v -6.319 -3.74 h -2.146 v -4.362 -23.239 h 77.418 9.422 11.335 9.51 7.045 39.752 39.839 54.022 1.939 40.709 7.033 3.003 5.217 22.762 60.815 31.279 100.057 24.957 110.82 v 60.544 z"
         style="fill:#000000;fill-opacity:0.1;fill-rule:nonzero;stroke:none"
         id="path252"
         inkscape:connector-curvature="0" />
    </g>
  </g>
</svg>
