<?xml version="1.0" encoding="UTF-8" standalone="no"?>
<!-- Created with Inkscape (http://www.inkscape.org/) -->

<svg
   xmlns:dc="http://purl.org/dc/elements/1.1/"
   xmlns:cc="http://creativecommons.org/ns#"
   xmlns:rdf="http://www.w3.org/1999/02/22-rdf-syntax-ns#"
   xmlns:svg="http://www.w3.org/2000/svg"
   xmlns="http://www.w3.org/2000/svg"
   xmlns:sodipodi="http://sodipodi.sourceforge.net/DTD/sodipodi-0.dtd"
   xmlns:inkscape="http://www.inkscape.org/namespaces/inkscape"
   width="232.87181mm"
   height="20.203104mm"
   viewBox="0 0 232.87181 20.203104"
   version="1.1"
   id="svg1030"
   inkscape:version="0.92.1 r15371"
   sodipodi:docname="skyline_1.svg">
  <defs
     id="defs1024" />
  <sodipodi:namedview
     id="base"
     pagecolor="#ffffff"
     bordercolor="#666666"
     borderopacity="1.0"
     inkscape:pageopacity="0.0"
     inkscape:pageshadow="2"
     inkscape:zoom="0.35"
     inkscape:cx="554.3584"
     inkscape:cy="18.179099"
     inkscape:document-units="mm"
     inkscape:current-layer="layer1"
     showgrid="false"
     fit-margin-top="0"
     fit-margin-left="0"
     fit-margin-right="0"
     fit-margin-bottom="0"
     inkscape:window-width="1680"
     inkscape:window-height="993"
     inkscape:window-x="0"
     inkscape:window-y="0"
     inkscape:window-maximized="1" />
  <metadata
     id="metadata1027">
    <rdf:RDF>
      <cc:Work
         rdf:about="">
        <dc:format>image/svg+xml</dc:format>
        <dc:type
           rdf:resource="http://purl.org/dc/dcmitype/StillImage" />
        <dc:title></dc:title>
      </cc:Work>
    </rdf:RDF>
  </metadata>
  <g
     inkscape:label="Layer 1"
     inkscape:groupmode="layer"
     id="layer1"
     transform="translate(40.84066,-133.44012)">
    <g
       id="g254"
       transform="matrix(0.35277777,0,0,-0.35277777,191.98526,153.64322)">
      <path
         d="m 0,0 h -659.979 v 57.135 c 1.139,-0.262 0.687,0.404 1.311,0 8.577,-4.807 14.946,-13.368 24.913,-16.566 1.218,-0.387 10.998,-2.015 11.364,-1.948 1.844,0.346 4.12,1.329 6.118,1.462 3.789,-0.325 7.577,-0.649 11.365,-0.976 5.189,1.51 9.52,6.967 17.92,4.874 1.385,-0.345 3.967,-1.13 5.245,-1.463 3.906,-1.012 8.368,0.695 11.8,-0.489 4.303,-1.474 6.696,-6.184 11.364,-6.816 1.786,1.904 7.646,6.513 10.49,6.816 0.711,-0.607 6.718,-4.094 7.431,-4.383 6.598,6.411 13.173,6.817 22.728,3.898 h 10.053 c 3.444,-0.952 8.018,-2.211 11.362,-3.898 3.393,-1.71 8.126,-3.961 11.364,-6.334 0.575,-0.42 1.515,-2.232 2.185,-2.434 2.325,-0.704 9.878,7.359 12.239,8.283 v -0.49 c 3.865,-4.217 3.799,-4.567 11.802,-4.383 5.597,-4.573 8.87,3.052 15.734,1.461 7.063,-1.636 14.708,0.735 20.105,2.436 5.598,1.762 10.762,0.911 16.172,2.922 6.263,2.332 11.906,6.923 18.793,8.771 5.917,1.586 11.765,-3.199 15.299,-4.872 3.52,-1.664 6.889,-1.838 10.052,-3.899 3.524,-2.294 4.837,-7.17 10.489,-7.795 3.583,3.09 8.63,4.807 11.365,8.771 6.772,-2.69 14.215,-5.847 20.542,-8.771 1.603,-0.324 3.205,-0.65 4.808,-0.974 2.392,-1.158 9.893,-5.986 13.548,-4.872 8.04,2.456 13.581,17.028 23.165,17.052 3.124,-2.342 6.754,-2.817 10.491,-4.383 6.063,-2.545 18.459,-10.921 27.098,-8.283 9.868,3.015 18.149,10.334 27.973,13.154 2.079,0.596 5.588,-0.186 6.992,-0.488 3.055,-0.651 6.103,2.025 10.055,0.977 5.066,-1.345 13.108,-5.169 20.542,-2.926 4.376,1.323 7.429,6.104 11.8,6.824 1.718,0.281 3.847,-1.643 6.557,-0.975 2.358,0.581 7.028,1.957 10.489,0.975 2.882,-0.821 6.128,-3.37 8.742,-3.898 0.897,-0.183 3.996,0.811 4.807,0.973 3.337,0.665 8.394,-2.618 10.053,-4.385 2.872,1.394 5.795,3.731 8.741,4.385 1.038,-0.912 3.654,-2.505 4.808,-2.924 3.788,0.163 7.576,0.325 11.363,0.485 3.497,-0.485 6.995,-0.971 10.49,-1.46 1.602,0.328 3.206,0.651 4.809,0.975 7.59,-1.264 12.429,-7.127 19.23,-9.256 h 7.868 c 4.581,-1.024 13.361,-1.28 18.356,0 h 8.743 c 1.653,0.523 3.336,2.228 4.808,2.925 5.082,2.403 10.447,2.851 14.859,5.845 2.605,1.767 5.018,4.34 8.306,5.36 -0.146,-0.326 -0.292,-0.65 -0.439,-0.975 h 0.439 C 0.626,44.998 0.001,40.036 0,36.671 Z"
         style="fill:#000000;fill-opacity:0.1;fill-rule:evenodd;stroke:none"
         id="path256"
         inkscape:connector-curvature="0" />
    </g>
  </g>
</svg>
