<?xml version="1.0" encoding="UTF-8" standalone="no"?>
<!-- Created with Inkscape (http://www.inkscape.org/) -->

<svg
   xmlns:dc="http://purl.org/dc/elements/1.1/"
   xmlns:cc="http://creativecommons.org/ns#"
   xmlns:rdf="http://www.w3.org/1999/02/22-rdf-syntax-ns#"
   xmlns:svg="http://www.w3.org/2000/svg"
   xmlns="http://www.w3.org/2000/svg"
   xmlns:sodipodi="http://sodipodi.sourceforge.net/DTD/sodipodi-0.dtd"
   xmlns:inkscape="http://www.inkscape.org/namespaces/inkscape"
   width="231.72322mm"
   height="39.200314mm"
   viewBox="0 0 231.72322 39.200314"
   version="1.1"
   id="svg1179"
   inkscape:version="0.92.1 r15371"
   sodipodi:docname="skyline_4.svg">
  <defs
     id="defs1173" />
  <sodipodi:namedview
     id="base"
     pagecolor="#ffffff"
     bordercolor="#666666"
     borderopacity="1.0"
     inkscape:pageopacity="0.0"
     inkscape:pageshadow="2"
     inkscape:zoom="0.35"
     inkscape:cx="263.61645"
     inkscape:cy="42.650757"
     inkscape:document-units="mm"
     inkscape:current-layer="layer1"
     showgrid="false"
     fit-margin-top="0"
     fit-margin-left="0"
     fit-margin-right="0"
     fit-margin-bottom="0"
     inkscape:window-width="1680"
     inkscape:window-height="993"
     inkscape:window-x="0"
     inkscape:window-y="0"
     inkscape:window-maximized="1" />
  <metadata
     id="metadata1176">
    <rdf:RDF>
      <cc:Work
         rdf:about="">
        <dc:format>image/svg+xml</dc:format>
        <dc:type
           rdf:resource="http://purl.org/dc/dcmitype/StillImage" />
        <dc:title></dc:title>
      </cc:Work>
    </rdf:RDF>
  </metadata>
  <g
     inkscape:label="Layer 1"
     inkscape:groupmode="layer"
     id="layer1"
     transform="translate(-36.084815,-120.9177)">
    <g
       id="g246"
       transform="matrix(0.35277777,0,0,-0.35277777,57.625778,157.13316)">
      <path
         d="M 0,0 -6.457,14.314 3.096,0 Z M 9.179,11.946 V 8.087 l -11.335,10.807 -4.49,6.06 C -2.69,21.563 3.472,16.543 9.179,11.946 M -8.033,26.823 9.179,14.194 V 12.176 C 3.189,17.003 -3.275,22.273 -7.129,25.603 Z M -45.44,0 -17.681,44.476 V 28.777 L -7.304,0 Z m -12.724,0 39.739,45.949 0.744,-0.594 V 45.302 L -45.955,0 Z M 11.334,45.144 C 27.699,40.97 49.258,35.536 72.049,29.846 118.732,18.189 158.469,8.464 182.765,2.74 V 0.983 h -3.871 c -0.977,0.241 -2.047,0.504 -3.18,0.785 v 1.38 h -5.607 C 126.641,13.867 11.34,42.414 -13.35,49.717 l -0.366,1.969 c 1.836,-0.547 7.52,-2.069 25.05,-6.542 M 27.184,0.983 h -0.58 v 0.426 z m -0.58,3.8 5.583,-3.8 H 27.473 L 26.604,1.622 Z M 9.179,16.639 v -2.231 l -17.561,12.887 -1.084,1.461 -0.118,0.648 z m 1.496,1.004 H 9.179 v -0.799 l -18.806,12.793 -0.046,0.244 z m 0.707,1.173 V 17.643 H 10.993 L -9.714,30.096 -9.81,30.62 Z m 0,1.483 v -1.298 l -21.229,11.826 -0.078,0.417 z m 0,1.339 v -1.159 l -21.345,10.962 -0.15,0.802 z m 0,1.463 v -1.288 l -21.53,10.625 -0.078,0.443 z m 0,1.008 v -0.836 l -21.645,9.795 -0.086,0.457 z m 0,1.423 v -1.257 l -21.764,9.432 -0.137,0.738 z m 0,0.766 v -0.599 l -21.934,8.926 -0.042,0.232 z m 0,1.433 v -1.27 l -22.009,8.574 -0.175,0.939 z m 0,0.62 V 27.89 l -22.218,8.256 -0.038,0.203 z m 0.659,1.36 h -0.659 v -1.199 l -22.285,8.009 -0.219,1.171 z m 3.442,0.887 v -0.23 h -1.172 v -0.657 h -0.922 l -24.548,8.171 -0.251,1.368 z m 7.934,-0.23 h -1.624 v 0.263 h -5.267 l -27.971,8.795 -0.315,1.725 z m 23.498,-5.055 v -1.709 l -58.711,17.712 -0.176,0.982 z m 0,2.486 V 25.75 l -58.922,16.718 -0.311,1.672 z m 5.821,0.512 H 46.915 V 28.17 l -59.263,16.134 -0.307,1.666 c 7.22,-1.955 34.462,-9.329 65.391,-17.659 M 72.807,24.702 C 105.662,16.247 137.378,8.2 155.662,3.66 V 1.04 C 139.3,5.217 97.954,16.29 60.091,26.478 v 0.085 h -0.313 c -0.619,0.167 -1.236,0.33 -1.851,0.499 v 1.249 H 53.285 C 21.992,36.739 -5.62,44.212 -12.686,46.126 l -0.232,1.258 C -2.415,44.111 54.417,29.437 72.807,24.702 M 166.651,3.148 V 1.82 h -0.64 -1.043 v 0.64 h -1.683 V 2.016 h -0.362 c -1.86,0.455 -4.008,0.984 -6.377,1.573 v 2.512 h -0.884 V 3.808 C 137.368,8.351 105.696,16.387 72.895,24.829 35.443,34.47 -4.811,44.995 -12.946,47.545 l -0.377,2.011 C 11.55,42.219 125.724,13.945 169.504,3.148 Z M 156.546,0.983 v 2.456 c 2.099,-0.519 4.069,-1.007 5.769,-1.423 h -1.997 V 0.983 Z M 57.927,26.912 c 0.434,-0.115 0.866,-0.233 1.301,-0.349 h -1.301 z m 88.861,-25.929 -9.726,2.649 v 1.827 h -0.96 V 3.893 L 60.091,24.584 v 0.013 h -0.045 l -2.119,0.575 v 0.95 h 2.164 v 0.209 C 97.73,16.2 138.781,5.209 155.307,0.983 Z m -9.726,0 V 2.93 l 7.058,-1.947 z m 0,-1.623 h 4.733 v -1.278 h -1.766 v -0.591 h -1.762 v -0.54 h -1.205 z M 58.524,24.597 H 57.927 V 24.76 Z M 136.102,3.347 60.091,24.318 v 0.118 L 136.102,3.744 Z m 8.57,-2.364 -7.61,2.099 v 0.402 l 9.182,-2.501 z m -97.757,26.97 -19.318,5.33 19.318,-5.26 z m 11.012,-2.928 1.577,-0.428 h -0.422 l -1.155,0.317 z M 134.194,0.983 62.419,21.35 h 0.158 v 0.443 h -0.482 v 1.165 h -4.168 v 1.197 h 2.164 v 0.011 L 136.102,3.196 V 0.983 Z m -50.4,0 -2.45,0.911 -0.006,0.025 H 81.276 L 62.095,9.046 v 0.186 h 0.482 v 0.44 h -0.482 v 0.451 L 87.528,0.983 Z M 69.823,1.919 62.095,5.063 v 0.128 h 0.482 v 0.444 h -0.482 v 0.568 h 0.482 v 0.151 l 11.39,-4.435 z m -7.728,-3.1 v 0.541 h 4.327 V -1.72 L 62.095,-2.902 Z M 40.074,10.114 V 7.655 l -14.06,6.937 v 1.887 z m 0,1.561 v -1.387 l -14.06,6.362 v 1.118 z M 66.422,1.919 V 0.983 H 65.128 L 62.577,2.09 V 4.35 H 62.095 V 4.896 L 69.412,1.919 Z M 62.577,1.924 64.75,0.983 H 62.577 Z M 40.074,13.857 v -2.015 l -14.06,6.093 v 1.644 z m 0,1.265 v -1.099 l -14.06,5.724 v 0.852 z M 74.387,1.919 62.577,6.52 v 0.125 h -0.321 l -0.161,0.062 v 0.505 h 0.482 v 0.443 h -0.482 v 0.567 h 0.482 V 8.665 H 62.095 V 8.884 L 80.841,1.919 Z M 81.571,0.983 81.389,1.714 83.357,0.983 Z M 40.074,17.068 v -1.783 l -14.06,5.476 v 1.531 z m 1.1,0.575 h -1.1 V 17.23 l -14.06,5.223 v 0.638 z m 5.741,0.052 v -0.052 h -5.298 l -15.603,5.608 v 1.647 z m 0,2.793 v -1.934 l -20.901,6.957 v 1.699 z m -31.044,10.143 -7.25,2.333 7.418,-2.333 z m 31.044,-9.709 v -0.278 l -20.901,6.723 v 0.127 z M 26.014,29.57 46.915,23.164 V 21.077 L 26.014,27.648 Z M 62.457,18.762 h -0.362 v 0.11 z M 119.788,0.983 62.577,18.518 v 0.209 L 121.393,0.983 Z M 62.095,16.744 v 0.568 h 0.482 v 0.44 h -0.482 v 0.568 h 0.482 v 0.045 L 119.279,0.983 h -8.463 L 62.103,16.299 h 0.474 v 0.445 z M 108.033,0.983 62.577,15.607 v 0.128 H 62.18 l -0.085,0.025 v 0.39 L 110.331,0.983 Z m -45.938,12.73 v 0.567 h 0.482 v 0.442 h -0.482 v 0.567 h 0.482 v 0.16 L 107.541,0.983 h -7.834 l -37.13,12.358 v 0.372 z m 0.482,-1.253 v 0.244 H 62.095 V 13.27 H 62.32 L 99.236,0.983 h -3.353 z m -0.482,-1.776 v 0.567 h 0.482 v 0.443 h -0.482 v 0.566 h 0.482 v 0.039 L 95.42,0.983 h -7.456 l -25.757,9.259 h 0.37 v 0.442 z m -15.18,14.781 -28.675,8.27 28.675,-8.137 z m 15.18,-4.174 71.563,-20.308 h -1.861 L 62.095,21.087 Z m 0,-1.518 v 0.568 h 0.482 v 0.442 h -0.482 v 0.153 L 131.269,0.983 h -9.372 L 62.095,19.025 v 0.305 h 0.482 v 0.443 z m -38.178,10.595 -4.68,1.433 27.678,-8.349 v -0.135 l -22.986,7.047 v 0.004 z m 0.012,-0.157 1.627,-0.5 h -1.627 z m -11.424,-0.5 -11.814,4.071 12.228,-4.071 z m 13.509,-4.358 20.901,-6.955 v -0.542 l -20.901,7.2 z m 14.06,-19.61 -13.47,6.917 v 0.394 h -0.59 v 1.363 L 40.074,7.48 Z m 0,-2.725 -13.47,7.503 V 12.48 L 40.074,5.561 Z M 38.695,0.983 26.604,8.255 v 2.082 L 40.074,2.834 V 0.983 Z m -6.201,0 -5.89,4.007 V 8.062 L 38.373,0.983 Z m 95.108,-2.901 v -0.887 h -0.719 v 0.739 h -3.129 v -1.277 h -9.14 v 1.571 h -1.121 v 0.394 h -1.284 V -1.82 h -1.362 v -0.835 h -2.888 v -0.688 h -7.137 v 1.425 h -8.339 v -0.294 h -2.806 v 1.572 h 46.425 v -2.015 h -1.28 -2.725 v 0.737 z m 28.944,0.198 v 1.08 h 3.772 v -2.508 h -1.926 v 1.428 z m 19.168,2.703 v 0.634 c 0.914,-0.224 1.765,-0.432 2.575,-0.634 z m 7.051,-5.115 h -7.051 v 3.492 h 7.051 z M -1.512,18.027 9.179,7.836 V 3.604 Z m 595.945,-4.649 c -2.392,1.013 -5.887,1.351 -8.636,1.239 -4.957,-0.337 -9.368,-1.913 -14.143,-2.368 -4.221,-0.447 -8.446,1.015 -12.668,0.341 -3.857,-0.563 -7.717,-1.577 -11.75,-1.915 -1.062,-0.076 -2.117,-0.173 -3.177,-0.286 v 27.839 l 3.749,0.676 2.063,4.184 c -0.856,0.656 -2.751,0.886 -2.751,0.886 l -0.347,0.636 -0.894,0.59 -0.698,-0.21 -1.122,0.293 -0.392,2.367 1.514,0.762 v 0.929 l -2.126,0.38 -0.347,0.634 h -1.18 v 13.339 h 0.427 c 0.454,0 0.824,0.227 0.824,0.508 0,0.278 -0.37,0.506 -0.824,0.506 h -0.427 v 0.45 h 0.427 c 0.454,0 0.824,0.227 0.824,0.508 0,0.279 -0.37,0.505 -0.824,0.505 h -0.427 v 11.128 h 0.468 v -0.675 h 0.847 l 0.393,0.478 v 1.407 0.114 l -0.393,0.226 h -1.315 -0.772 -0.561 -0.774 -1.291 l -0.402,-0.226 v -0.114 -1.407 l 0.402,-0.478 h 0.841 v 0.675 h 0.45 V 66.171 h -0.412 c -0.455,0 -0.825,-0.226 -0.825,-0.505 0,-0.281 0.37,-0.508 0.825,-0.508 h 0.412 v -0.45 h -0.412 c -0.455,0 -0.825,-0.228 -0.825,-0.506 0,-0.281 0.37,-0.508 0.825,-0.508 h 0.412 V 50.355 h -2.519 V 49.41 l -1.364,-0.998 1.364,-0.785 v -2.765 h -3.079 l -0.899,-0.803 h -3.166 l -0.753,-0.677 1.929,-3.717 5.968,-1.437 V 9.233 c -4.137,-0.852 -5.257,-1.088 -9.874,-0.249 -3.304,0.564 -3.491,-0.226 -6.422,-1.015 -1.847,-0.563 -3.127,-0.451 -5.148,-0.451 -6.436,0.114 -11.759,-0.226 -18.004,-0.9 -2.752,-0.339 -4.956,-1.014 -7.704,-1.464 -1.357,-0.278 -4.259,-0.408 -5.791,-0.933 h -1.433 c -0.165,0.016 -0.335,0.029 -0.495,0.029 l 0.074,-0.029 h -5.768 V 9.216 H 457.242 V 4.221 h -5.229 v 21.967 h -10.637 v 9.031 h -13.579 l -21.286,-3.651 v -5.572 l -19.215,-1.987 v -1.664 h -10.647 v 2.24 l -4.382,0.962 h -5.323 l -0.628,-1.281 h -4.595 l -4.382,-0.77 v -2.241 h -1.045 v 1.602 h -4.901 v 1.216 h -3.972 -3.44 v -1.346 -1.151 -0.511 h 1.767 v -1.154 h -3.754 v -1.796 h -7.723 v -2.047 h -5.637 V 7.23 h -10.026 v 18.958 h -1.044 v 12.169 h -5.84 v 1.412 h -3.766 V 71.146 H 287.086 V 23.37 h -14.2 v 16.268 h -6.474 v 1.41 l -4.174,1.92 h -1.669 v -2.051 h -1.043 v -1.666 h -4.174 V 17.479 l -0.841,-0.511 V 7.999 l -5.002,36.122 -1.253,0.126 v 37.147 l -20.885,21.264 H 212.347 V 49.371 h -9.612 V 2.75 l -5.38,-1.084 v 2.861 l -4.723,-0.593 v 0.937 l -4.61,-0.662 -0.439,0.267 h -0.726 V 4.035 l -4.092,-0.247 v -0.9 C 125.515,16.372 -3.491,48.776 -13.743,51.831 l -0.893,4.814 -0.76,-0.713 -0.282,1.033 h -0.478 l -1.603,-2.411 v -2.559 l -1.526,-5.358 0.537,-0.432 L -58.707,0 h -2.354 v -6.296 -1.08 -1.085 h 257.746 11.178 387.851 V 4.221 9.435 c 0,1.578 0.553,3.043 -1.281,3.943"
         style="fill:#000000;fill-opacity:0.1;fill-rule:nonzero;stroke:none"
         id="path248"
         inkscape:connector-curvature="0" />
    </g>
  </g>
</svg>
