<?xml version="1.0" encoding="UTF-8" standalone="no"?>
<svg
   xmlns:dc="http://purl.org/dc/elements/1.1/"
   xmlns:cc="http://creativecommons.org/ns#"
   xmlns:rdf="http://www.w3.org/1999/02/22-rdf-syntax-ns#"
   xmlns:svg="http://www.w3.org/2000/svg"
   xmlns="http://www.w3.org/2000/svg"
   viewBox="0 0 712.43927 185.64738"
   height="185.64738"
   width="712.43927"
   xml:space="preserve"
   id="svg307"
   version="1.1"><metadata
     id="metadata313"><rdf:RDF><cc:Work
         rdf:about=""><dc:format>image/svg+xml</dc:format><dc:type
           rdf:resource="http://purl.org/dc/dcmitype/StillImage" /><dc:title></dc:title></cc:Work></rdf:RDF></metadata><defs
     id="defs311"><clipPath
       id="clipPath323"
       clipPathUnits="userSpaceOnUse"><path
         id="path321"
         d="M 0,792 H 612 V 0 H 0 Z" /></clipPath></defs><g
     transform="matrix(1.3333333,0,0,-1.3333333,450.55687,757.97476)"
     id="g315"><g
       id="g4093"><g
         id="g333"
         transform="matrix(1.3400274,0,0,1.3400274,92.074664,502.40353)"><g
           id="g4004"><g
             transform="translate(236.74908,244.68212)"
             id="g329"><path
               id="path331"
               style="fill:#d81f2a;fill-opacity:1;fill-rule:nonzero;stroke:none"
               d="m -220.57718,-265.45652 c -6.697,-12.001 -13.252,-21.954 -13.528,-22.374 l -2.644,-4.006 -2.643,4.006 c -0.278,0.422 -6.883,10.465 -13.529,22.374 -9.162,16.418 -13.807,28.134 -13.807,34.821 0,16.531 13.448,29.98 29.979,29.98 16.531,0 29.98,-13.449 29.98,-29.98 0,-6.688 -4.646,-18.403 -13.808,-34.821 m -16.172,70.085 c -19.444,0 -35.264,-15.819 -35.264,-35.264 0,-7.813 4.601,-19.697 14.478,-37.396 6.74,-12.077 13.449,-22.279 13.731,-22.708 l 4.85,-7.351 c 0.488,-0.74 1.317,-1.186 2.205,-1.186 0.888,0 1.717,0.446 2.206,1.186 l 4.848,7.35 c 0.281,0.426 6.941,10.538 13.733,22.709 9.877,17.699 14.477,29.582 14.477,37.396 0,19.445 -15.82,35.264 -35.264,35.264" /></g><path
             id="path335"
             style="fill:#d81f2a;fill-opacity:1;fill-rule:nonzero;stroke:none"
             d="m 0,0 c -7.867,0 -14.268,6.4 -14.268,14.267 0,7.868 6.401,14.268 14.268,14.268 7.868,0 14.268,-6.4 14.268,-14.268 C 14.268,6.4 7.868,0 0,0 m 0,33.819 c -10.781,0 -19.552,-8.771 -19.552,-19.552 0,-10.781 8.771,-19.551 19.552,-19.551 10.781,0 19.552,8.77 19.552,19.551 0,10.781 -8.771,19.552 -19.552,19.552" /></g></g><path
         id="path3965"
         style="font-style:normal;font-variant:normal;font-weight:normal;font-stretch:normal;font-size:79.63064575px;line-height:1.25;font-family:Ubuntu;-inkscape-font-specification:Ubuntu;letter-spacing:0px;word-spacing:0px;fill:#a7a9ac;fill-opacity:0.88235294;stroke:none;stroke-width:1.99076617"
         d="m -292.60783,496.30447 q 0,-7.16676 -2.22965,-12.50201 -2.22966,-5.25562 -6.29083,-8.75937 -4.06116,-3.42412 -9.71493,-5.17599 -5.65378,-1.67225 -12.42239,-1.67225 -3.34448,0 -7.40565,0.31853 -3.98153,0.23889 -7.24638,1.0352 v 53.51179 q 3.26485,0.79631 7.24638,1.0352 4.06117,0.31852 7.40565,0.31852 6.76861,0 12.42239,-1.75187 5.65377,-1.67225 9.71493,-5.176 4.06117,-3.42411 6.29083,-8.75937 2.22965,-5.25562 2.22965,-12.42238 z m -30.02075,-21.34101 q 10.98903,0 16.40391,5.57414 5.41489,5.65378 5.41489,15.76687 0,10.11309 -5.41489,15.68724 -5.41488,5.65378 -16.40391,5.65378 -3.26486,0 -5.09636,-0.0796 -1.75188,-0.0796 -2.46855,-0.15926 v -42.20424 q 0.71667,-0.0796 2.46855,-0.15926 1.8315,-0.0796 5.09636,-0.0796 z" /><path
         id="path3967"
         style="font-style:normal;font-variant:normal;font-weight:normal;font-stretch:normal;font-size:79.63064575px;line-height:1.25;font-family:Ubuntu;-inkscape-font-specification:Ubuntu;letter-spacing:0px;word-spacing:0px;fill:#a7a9ac;fill-opacity:0.88235294;stroke:none;stroke-width:1.99076617"
         d="m -281.14106,468.67264 v 55.18404 h 33.68376 v -6.60935 h -25.95959 v -16.40391 h 23.09289 v -6.45008 h -23.09289 v -19.11136 h 27.95036 v -6.60934 z" /><path
         id="path3969"
         style="font-style:normal;font-variant:normal;font-weight:normal;font-stretch:normal;font-size:79.63064575px;line-height:1.25;font-family:Ubuntu;-inkscape-font-specification:Ubuntu;letter-spacing:0px;word-spacing:0px;fill:#a7a9ac;fill-opacity:0.88235294;stroke:none;stroke-width:1.99076617"
         d="m -222.85149,474.16715 q 12.10385,0 12.10385,8.28159 0,2.54818 -1.11483,4.30005 -1.03519,1.83151 -2.8667,3.1056 -1.8315,1.35372 -4.22042,2.30929 -2.30929,0.95557 -4.9371,1.91113 -3.02597,1.0352 -5.73341,2.30929 -2.70744,1.35372 -4.69821,3.1056 -1.99076,1.8315 -3.18522,4.30005 -1.11483,2.46855 -1.11483,5.9723 0,7.24639 4.9371,11.30755 4.9371,4.06117 13.61684,4.06117 5.01673,0 9.07789,-1.11483 4.1408,-1.0352 6.05193,-2.30929 l -2.46855,-6.29082 q -1.67224,1.0352 -5.01673,1.99076 -3.26486,1.0352 -7.64454,1.0352 -2.22966,0 -4.1408,-0.47778 -1.91113,-0.47779 -3.34448,-1.43335 -1.43335,-0.95557 -2.30929,-2.46855 -0.79631,-1.43336 -0.79631,-3.42412 0,-2.22966 0.87594,-3.74264 0.87594,-1.51298 2.46855,-2.70744 1.59261,-1.11483 3.66301,-2.0704 2.15003,-0.95557 4.69821,-1.91114 3.58338,-1.43335 6.52971,-2.8667 3.02596,-1.43335 5.17599,-3.42412 2.22966,-1.99076 3.42412,-4.77784 1.19446,-2.70744 1.19446,-6.60934 0,-7.24639 -5.33525,-11.14829 -5.25563,-3.9019 -14.89093,-3.9019 -3.26486,0 -6.05193,0.47778 -2.70745,0.39816 -4.85747,0.95557 -2.15003,0.63705 -3.74264,1.27409 -1.51299,0.71668 -2.38892,1.19446 l 2.30929,6.37045 q 1.8315,-1.0352 5.57414,-2.30929 3.74264,-1.27409 9.15753,-1.27409 z" /><path
         id="path3971"
         style="font-style:normal;font-variant:normal;font-weight:normal;font-stretch:normal;font-size:79.63064575px;line-height:1.25;font-family:Ubuntu;-inkscape-font-specification:Ubuntu;letter-spacing:0px;word-spacing:0px;fill:#a7a9ac;fill-opacity:0.88235294;stroke:none;stroke-width:1.99076617"
         d="m -156.43957,523.85668 v -6.68898 h -17.35949 v -48.49506 h -7.72417 v 48.49506 h -17.35948 v 6.68898 z" /><path
         id="path3973"
         style="font-style:normal;font-variant:normal;font-weight:normal;font-stretch:normal;font-size:79.63064575px;line-height:1.25;font-family:Ubuntu;-inkscape-font-specification:Ubuntu;letter-spacing:0px;word-spacing:0px;fill:#a7a9ac;fill-opacity:0.88235294;stroke:none;stroke-width:1.99076617"
         d="m -148.31735,523.85668 h 7.72417 v -55.18404 h -7.72417 z" /><path
         id="path3975"
         style="font-style:normal;font-variant:normal;font-weight:normal;font-stretch:normal;font-size:79.63064575px;line-height:1.25;font-family:Ubuntu;-inkscape-font-specification:Ubuntu;letter-spacing:0px;word-spacing:0px;fill:#a7a9ac;fill-opacity:0.88235294;stroke:none;stroke-width:1.99076617"
         d="m -89.072218,468.67264 q -1.751874,2.94633 -4.061163,6.60934 -2.229658,3.66301 -4.857469,7.56491 -2.62781,3.98154 -5.49451,8.0427 -2.78708,4.06116 -5.57415,7.8038 -2.78707,3.82227 -5.41488,7.16676 -2.62782,3.34449 -4.85747,5.89267 v -43.08018 h -7.56491 v 55.18404 h 6.13155 q 3.74265,-3.98154 7.96307,-9.31679 4.30005,-5.25562 8.44085,-10.9094 4.22042,-5.57414 7.883432,-10.98903 3.74264,-5.41488 6.290821,-9.63531 v 40.85053 h 7.564911 v -55.18404 z" /><path
         id="path3977"
         style="font-style:normal;font-variant:normal;font-weight:normal;font-stretch:normal;font-size:79.63064575px;line-height:1.25;font-family:Ubuntu;-inkscape-font-specification:Ubuntu;letter-spacing:0px;word-spacing:0px;fill:#a7a9ac;fill-opacity:0.88235294;stroke:none;stroke-width:1.99076617"
         d="m -32.056793,468.67264 q -1.353721,3.58338 -2.54818,7.00749 -1.19446,3.50375 -2.46855,7.08713 h -25.004023 l -5.016731,-14.09462 h -8.042695 q 3.185226,8.75937 5.972298,16.16502 2.787073,7.48528 5.414884,14.17425 2.707442,6.68898 5.335253,12.74091 2.627812,6.13156 5.494515,12.10386 h 7.087127 q 2.866704,-5.9723 5.494515,-12.10386 2.627811,-6.05193 5.255623,-12.74091 2.707442,-6.68897 5.494514,-14.17425 2.787073,-7.40565 5.972299,-16.16502 z m -7.246389,20.46507 q -2.54818,6.92787 -5.096361,13.37795 -2.46855,6.52972 -5.175992,12.50201 -2.787072,-5.97229 -5.335253,-12.50201 -2.46855,-6.45008 -4.9371,-13.37795 z" /><path
         id="path3979"
         style="font-style:normal;font-variant:normal;font-weight:normal;font-stretch:normal;font-size:79.63064575px;line-height:1.25;font-family:Ubuntu;-inkscape-font-specification:Ubuntu;letter-spacing:0px;word-spacing:0px;fill:#a7a9ac;fill-opacity:0.88235294;stroke:none;stroke-width:1.99076617"
         d="M 15.641755,523.85668 V 517.1677 H -1.7177262 V 468.67264 H -9.4418989 V 517.1677 H -26.80138 v 6.68898 z" /><path
         id="path3981"
         style="font-style:normal;font-variant:normal;font-weight:normal;font-stretch:normal;font-size:79.63064575px;line-height:1.25;font-family:Ubuntu;-inkscape-font-specification:Ubuntu;letter-spacing:0px;word-spacing:0px;fill:#a7a9ac;fill-opacity:0.88235294;stroke:none;stroke-width:1.99076617"
         d="m 23.763977,523.85668 h 7.724172 v -55.18404 h -7.724172 z" /><path
         id="path3985"
         style="font-style:normal;font-variant:normal;font-weight:normal;font-stretch:normal;font-size:79.63064575px;line-height:1.25;font-family:Ubuntu;-inkscape-font-specification:Ubuntu;letter-spacing:0px;word-spacing:0px;fill:#a7a9ac;fill-opacity:0.88235294;stroke:none;stroke-width:1.99076617"
         d="m 189.96173,468.67264 q -1.75187,2.94633 -4.06116,6.60934 -2.22966,3.66301 -4.85747,7.56491 -2.62781,3.98154 -5.49451,8.0427 -2.78708,4.06116 -5.57415,7.8038 -2.78707,3.82227 -5.41488,7.16676 -2.62781,3.34449 -4.85747,5.89267 v -43.08018 h -7.56491 v 55.18404 h 6.13156 q 3.74264,-3.98154 7.96306,-9.31679 4.30006,-5.25562 8.44085,-10.9094 4.22042,-5.57414 7.88343,-10.98903 3.74264,-5.41488 6.29082,-9.63531 v 40.85053 h 7.56492 v -55.18404 z" /></g></g></svg>